<svg width="465" height="465" viewBox="0 0 465 465" fill="none" xmlns="http://www.w3.org/2000/svg">
<rect width="465" height="465" fill="#D9D9D9"/>
<circle cx="232.5" cy="232.5" r="156" stroke="#797979" stroke-width="7"/>
<rect x="36" y="219" width="393" height="57" fill="#D9D9D9"/>
<path d="M69.8693 262V232.909H75.1392V245.224H88.6193V232.909H93.9034V262H88.6193V249.642H75.1392V262H69.8693Z" fill="#797979"/>
<path d="M99.635 262V232.909H118.555V237.327H104.905V245.224H117.575V249.642H104.905V257.582H118.669V262H99.635Z" fill="#797979"/>
<path d="M147.838 232.909V262H143.151L129.443 242.185H129.202V262H123.932V232.909H128.648L142.341 252.739H142.597V232.909H147.838Z" fill="#797979"/>
<path d="M152.302 237.327V232.909H175.512V237.327H166.521V262H161.293V237.327H152.302Z" fill="#797979"/>
<path d="M179.987 262V232.909H198.907V237.327H185.256V245.224H197.927V249.642H185.256V257.582H199.021V262H179.987Z" fill="#797979"/>
<path d="M204.283 262V232.909H215.192C217.427 232.909 219.302 233.297 220.817 234.074C222.342 234.85 223.493 235.939 224.269 237.341C225.055 238.733 225.448 240.357 225.448 242.213C225.448 244.079 225.05 245.698 224.255 247.071C223.469 248.435 222.309 249.491 220.775 250.239C219.241 250.977 217.356 251.347 215.121 251.347H207.352V246.972H214.411C215.718 246.972 216.788 246.792 217.621 246.432C218.455 246.062 219.07 245.527 219.468 244.827C219.875 244.116 220.079 243.245 220.079 242.213C220.079 241.181 219.875 240.3 219.468 239.571C219.061 238.832 218.441 238.274 217.607 237.895C216.774 237.507 215.699 237.312 214.383 237.312H209.553V262H204.283ZM219.312 248.818L226.513 262H220.633L213.559 248.818H219.312Z" fill="#797979"/>
<path d="M240.221 262V232.909H251.357C253.46 232.909 255.207 233.241 256.599 233.903C258 234.557 259.047 235.452 259.738 236.588C260.439 237.724 260.789 239.012 260.789 240.452C260.789 241.635 260.562 242.649 260.107 243.491C259.653 244.325 259.042 245.002 258.275 245.523C257.508 246.044 256.651 246.418 255.704 246.645V246.929C256.736 246.986 257.726 247.303 258.673 247.881C259.629 248.449 260.41 249.254 261.016 250.295C261.622 251.337 261.925 252.597 261.925 254.074C261.925 255.58 261.561 256.934 260.832 258.136C260.103 259.33 259.004 260.272 257.536 260.963C256.068 261.654 254.222 262 251.996 262H240.221ZM245.491 257.597H251.158C253.071 257.597 254.449 257.232 255.292 256.503C256.144 255.764 256.57 254.817 256.57 253.662C256.57 252.8 256.357 252.024 255.931 251.332C255.505 250.632 254.899 250.082 254.113 249.685C253.327 249.277 252.389 249.074 251.3 249.074H245.491V257.597ZM245.491 245.281H250.704C251.613 245.281 252.432 245.116 253.161 244.784C253.89 244.443 254.463 243.965 254.88 243.349C255.306 242.724 255.519 241.986 255.519 241.134C255.519 240.007 255.121 239.079 254.326 238.349C253.54 237.62 252.371 237.256 250.817 237.256H245.491V245.281Z" fill="#797979"/>
<path d="M271.78 232.909V262H266.51V232.909H271.78Z" fill="#797979"/>
<path d="M277.487 262V232.909H282.756V257.582H295.569V262H277.487Z" fill="#797979"/>
<path d="M300.143 262V232.909H305.413V257.582H318.225V262H300.143Z" fill="#797979"/>
<path d="M322.799 262V232.909H341.719V237.327H328.069V245.224H340.739V249.642H328.069V257.582H341.833V262H322.799Z" fill="#797979"/>
<path d="M356.954 262H347.096V232.909H357.153C360.041 232.909 362.522 233.491 364.596 234.656C366.679 235.812 368.28 237.473 369.397 239.642C370.514 241.811 371.073 244.405 371.073 247.426C371.073 250.456 370.51 253.061 369.383 255.239C368.265 257.417 366.651 259.088 364.539 260.253C362.437 261.418 359.908 262 356.954 262ZM352.366 257.44H356.698C358.725 257.44 360.415 257.071 361.769 256.332C363.123 255.584 364.141 254.472 364.823 252.994C365.505 251.508 365.846 249.652 365.846 247.426C365.846 245.201 365.505 243.354 364.823 241.886C364.141 240.409 363.133 239.306 361.798 238.577C360.472 237.838 358.824 237.469 356.854 237.469H352.366V257.44Z" fill="#797979"/>
<path d="M376.08 262V232.909H395.001V237.327H381.35V245.224H394.021V249.642H381.35V257.582H395.114V262H376.08Z" fill="#797979"/>
</svg>
